<svg xmlns="http://www.w3.org/2000/svg" viewBox="0 0 68.45 36.05"><g id="Layer_2" data-name="Layer 2"><g id="Layer_1-2" data-name="Layer 1"><path d="M40.3,31.88a10.29,10.29,0,0,1-4.95-1.81l-.57-.42c-.36-.24-.69-.39-.74.26,0,.12,0,.29-.18.33s-.22-.16-.3-.28a9.91,9.91,0,0,1-.72-1.75c-.21-.52-.48-.62-.86-.2a4.76,4.76,0,0,1-2.47,1.37,26.59,26.59,0,0,1-2.75,1,4.9,4.9,0,0,1-1.75,0c-.58-.12-1,0-1.16.68A3.45,3.45,0,0,1,22.74,33a1,1,0,0,1-1.26.15c-.87-.46-.93-.41-1.58.29A7.9,7.9,0,0,1,13.39,36a12.61,12.61,0,0,1-3.52-.6,13.57,13.57,0,0,1-3.23-1.56,18.37,18.37,0,0,1-4.28-4A10.69,10.69,0,0,1,.15,21.51a16,16,0,0,1,2-5c.56-1,1.16-2,1.71-3.06a14.15,14.15,0,0,1,1.58-2.29A36.27,36.27,0,0,1,8.49,7.46a24.78,24.78,0,0,1,3.78-3.15A17.65,17.65,0,0,1,17.51,2.4C18.36,2.19,19.2,2,20,1.81c1.05-.21,2.1-.39,3.15-.56a1.49,1.49,0,0,0,1-.59C24.72,0,25.32-.23,26,.29c1.23,1,2.66.81,4,1,3.1.4,6.15,1,8.76,2.86a13.3,13.3,0,0,1,4,4.6A18.6,18.6,0,0,1,44.33,12,47,47,0,0,1,46,16.82c.29,1.56.4,3.16.68,4.72a12.54,12.54,0,0,1-.16,5.29C45.8,29.55,44.25,31.79,40.3,31.88Zm-14.93-6h0c.06-.84.43-1.64.41-2.49A68.35,68.35,0,0,1,26.6,14c.22-2.11.86-4.16,1.1-6.28a2.7,2.7,0,0,1,.52-1.51.81.81,0,0,0,.15-.62,8.38,8.38,0,0,0-.73-2.29,1.62,1.62,0,0,0-1.59-1A2.58,2.58,0,0,0,23.9,3.42c-.51,1.07-.88,2.24-1.33,3.36a27.08,27.08,0,0,0-1.64,6.1c-.25,1.77-.55,3.54-.74,5.31a35,35,0,0,0,0,5.42c0,.25,0,.6.32.65s.37-.27.48-.48c.49-1,1-1.94,1.43-2.93.17-.39.39-.67.81-.56s.35.58.33.94a1.6,1.6,0,0,1-.12.37,7.19,7.19,0,0,0,.46,6.17c.12.21.26.45.55.23s.22-.44.5-.21.14.44.06.66a.66.66,0,0,0,.5,1,3,3,0,0,0,2-.19.6.6,0,0,0,.3-.95c-.27-.5-.55-1-.79-1.5C26.5,25.64,26.51,25.63,25.37,25.87ZM14,18.77a3.85,3.85,0,0,1-.52-.28c-.75-.55-.91-.5-1.14.42A56.15,56.15,0,0,0,11,25.22a27.08,27.08,0,0,0,.31,8.57,1.12,1.12,0,0,0,1.92.58,10.65,10.65,0,0,0,1.92-2.26c1.07-1.52,2.5-2.76,3.45-4.4a3.33,3.33,0,0,0,.59-2.37A25.61,25.61,0,0,1,19,20.79a52.41,52.41,0,0,1,.63-6.49A34.15,34.15,0,0,1,22.77,3.47c.29-.57.08-1-.52-.83-1.19.25-2.4.36-3.58.58-1.43.27-2.69,1.09-4.16,1.22a1.22,1.22,0,0,0-.36.14,15.78,15.78,0,0,0-4,2.93,33.32,33.32,0,0,0-6,7.72c-.69,1.11-1.24,2.29-1.82,3.46a9.14,9.14,0,0,0-.18,8.62,16.46,16.46,0,0,0,2.1,2.81,13.5,13.5,0,0,0,5.15,4c.19.09.39.25.61.08s.17-.42.14-.66c-.12-1-.27-2-.33-3a29.86,29.86,0,0,1,.93-9.45,21,21,0,0,0,1-4.22A.82.82,0,0,1,12.4,16a.94.94,0,0,1,1,.58A6.6,6.6,0,0,1,14,18.77Zm32.16,2.67A4,4,0,0,0,46,19.71a28.4,28.4,0,0,0-2.19-7.35,23.91,23.91,0,0,0-3.62-5.78,10.82,10.82,0,0,0-5.1-3.12,25.34,25.34,0,0,0-5.81-1.07c-.82-.08-1.05.1-.86.88.24,1,.51,2,.66,3a18.34,18.34,0,0,1,.14,5.07,62.75,62.75,0,0,1-1,6.23c-.28,1.22-.43,2.48-.73,3.7a5.42,5.42,0,0,0-.1,3.14,11.67,11.67,0,0,0,1.26,3.13c.46.64.88.71,1.48.23s1.37-1.07,2.05-1.61c.24-.19.5-.38.52-.72,0-.67.1-1.35.08-2a58.8,58.8,0,0,1,.51-10.69,14.4,14.4,0,0,1,1.9-5.31,1.61,1.61,0,0,1,1.47-.92,3,3,0,0,1,2.47,2.05,7.11,7.11,0,0,1,.1,2.56,17.43,17.43,0,0,1-1.58,5.67c-.08.19-.18.43-.4.33s-.06-.37,0-.53a40.87,40.87,0,0,0,1.11-4.49,7.12,7.12,0,0,0-.08-2.91c-.06-.35-.19-.76-.62-.85a1,1,0,0,0-1.08.46,2.65,2.65,0,0,1-.4.42,3.85,3.85,0,0,0-1.24,1.65,23.52,23.52,0,0,0-.77,3.5,61.43,61.43,0,0,0-.38,7.43c0,.64-.14,1.37.55,1.84.14.09.11.31,0,.49s-.19.58-.28.87A2.76,2.76,0,0,0,34.63,28,10.17,10.17,0,0,0,40,30.88a5.09,5.09,0,0,0,3.41-.55A5.67,5.67,0,0,0,45.45,28c.3-.51.1-.87-.49-1.11s-1.38-.52-2.05-.85c-.38-.18-.68-.54-.4-1s.72-.32,1.1-.15A4.85,4.85,0,0,1,45,25.94c.2.21.4.45.71.36s.35-.46.4-.76A15.6,15.6,0,0,0,46.14,21.44ZM15,35.19a5.58,5.58,0,0,0,.61,0,9.17,9.17,0,0,0,3.94-2,1.86,1.86,0,0,0,.87-1.73,20.67,20.67,0,0,0-.8-2.82c-.21-.62-.69-.64-1.05-.09s-.45.89-.75,1.29c-1.05,1.38-1.73,3-3.23,4.07a.89.89,0,0,0-.41,1C14.29,35.24,14.7,35.17,15,35.19Zm6.91-3.84a.61.61,0,0,0,.2.61.19.19,0,0,0,.29,0,10.64,10.64,0,0,0,.91-1.24.87.87,0,0,0-.18-1.13A.94.94,0,0,1,22.8,29,20.2,20.2,0,0,1,22,25.33a.43.43,0,0,0-.31-.46c-.21,0-.36.13-.46.31a3.31,3.31,0,0,0-.65,1.8,6.79,6.79,0,0,0,.71,3C21.5,30.43,22.47,30.58,21.91,31.35Z"/><path d="M57.59,19.91a13.74,13.74,0,0,1,3.9.28,3.54,3.54,0,0,1,.44.11c.09,0,.2.1.18.24s-.15.12-.25.13c-1.22.15-2.44,0-3.65.11A48.53,48.53,0,0,0,53,21.1a4.6,4.6,0,0,0-1.88,1,1.16,1.16,0,0,0-.35.95,42.38,42.38,0,0,1-.49,4.21,3.34,3.34,0,0,1-.39,1.11c-.29.5-.81.53-1.05,0A5,5,0,0,1,48.16,26c.08-1.21-.2-2.42-.06-3.64a32.87,32.87,0,0,1,1.61-6.91,25.85,25.85,0,0,1,1.53-3.88,14.52,14.52,0,0,1,4.88-5.9,8.92,8.92,0,0,1,2.26-1.26c2-.57,3.31.29,3.64,2.23a9.75,9.75,0,0,1-1.15,6,16.29,16.29,0,0,1-4.42,5.07c-.5.44-1.06.82-1.54,1.28-.2.2-.44.41-.3.73s.44.23.69.23C56,19.92,56.66,19.91,57.59,19.91Zm3.63-11a10.23,10.23,0,0,0-.3-2.29A1.57,1.57,0,0,0,58.85,5.3a8,8,0,0,0-3.76,2.48.31.31,0,0,0,0,.47c.78.75.43,1.5-.06,2.16-2,2.61-2.71,5.71-3.56,8.76-.08.3-.19.68.13.91s.61-.09.85-.27q2.07-1.5,4-3.17a11.18,11.18,0,0,0,2-2,27.14,27.14,0,0,0,2.29-3.94A5.54,5.54,0,0,0,61.22,8.93ZM49.28,25.32c0-.31.24-.53.27-.81a35.84,35.84,0,0,1,1.23-6.32c.87-2.87,1.54-5.79,3.23-8.34.13-.19.15-.38,0-.52s-.32.06-.42.17a11.32,11.32,0,0,0-1.79,2.77A26.52,26.52,0,0,0,50,17.55c-.36,1.83-.81,3.65-1,5.5A4.06,4.06,0,0,0,49.28,25.32Z"/><path d="M64.34,24.19a8.22,8.22,0,0,1,1.76-.91,1.14,1.14,0,0,1,1.35.37c.25.3.44.64.86.77.26.08.09.23,0,.33a.66.66,0,0,1-.79.15,6.72,6.72,0,0,0-2.79-.55C64.63,24.35,64.53,24.27,64.34,24.19Z"/><path d="M25.37,25.87c.74.58-.17.84-.2,1.28-.32-.51.33-.81.21-1.28Z"/></g></g></svg>